<mxfile host="app.diagrams.net" agent="Mozilla/5.0 (Windows NT 10.0; Win64; x64) AppleWebKit/537.36 (KHTML, like Gecko) Chrome/131.0.0.0 Safari/537.36 OPR/116.0.0.0" version="26.0.13">
  <diagram name="Страница — 1" id="xXVmxR8uxKlFaUdHyjgM">
    <mxGraphModel dx="1440" dy="961" grid="0" gridSize="10" guides="1" tooltips="1" connect="1" arrows="1" fold="1" page="1" pageScale="1" pageWidth="1654" pageHeight="1169" math="0" shadow="0">
      <root>
        <mxCell id="0" />
        <mxCell id="1" parent="0" />
        <mxCell id="j_bU8EZD3RiMcGnf8XSQ-7" value="" style="group" parent="1" vertex="1" connectable="0">
          <mxGeometry x="384" y="340" width="90" height="190" as="geometry" />
        </mxCell>
        <mxCell id="j_bU8EZD3RiMcGnf8XSQ-1" value="" style="ellipse;whiteSpace=wrap;html=1;aspect=fixed;" parent="j_bU8EZD3RiMcGnf8XSQ-7" vertex="1">
          <mxGeometry x="18" width="48" height="48" as="geometry" />
        </mxCell>
        <mxCell id="j_bU8EZD3RiMcGnf8XSQ-3" value="" style="endArrow=none;html=1;rounded=0;entryX=0.5;entryY=1;entryDx=0;entryDy=0;" parent="j_bU8EZD3RiMcGnf8XSQ-7" target="j_bU8EZD3RiMcGnf8XSQ-1" edge="1">
          <mxGeometry width="50" height="50" relative="1" as="geometry">
            <mxPoint x="42" y="149.2857142857143" as="sourcePoint" />
            <mxPoint x="132" y="88.21428571428572" as="targetPoint" />
          </mxGeometry>
        </mxCell>
        <mxCell id="j_bU8EZD3RiMcGnf8XSQ-4" value="" style="endArrow=none;html=1;rounded=0;" parent="j_bU8EZD3RiMcGnf8XSQ-7" edge="1">
          <mxGeometry width="50" height="50" relative="1" as="geometry">
            <mxPoint x="18" y="190" as="sourcePoint" />
            <mxPoint x="42" y="149.2857142857143" as="targetPoint" />
          </mxGeometry>
        </mxCell>
        <mxCell id="j_bU8EZD3RiMcGnf8XSQ-5" value="" style="endArrow=none;html=1;rounded=0;" parent="j_bU8EZD3RiMcGnf8XSQ-7" edge="1">
          <mxGeometry width="50" height="50" relative="1" as="geometry">
            <mxPoint x="42" y="149.2857142857143" as="sourcePoint" />
            <mxPoint x="66" y="190" as="targetPoint" />
          </mxGeometry>
        </mxCell>
        <mxCell id="j_bU8EZD3RiMcGnf8XSQ-6" value="" style="endArrow=none;html=1;rounded=0;" parent="j_bU8EZD3RiMcGnf8XSQ-7" edge="1">
          <mxGeometry width="50" height="50" relative="1" as="geometry">
            <mxPoint y="81.42857142857143" as="sourcePoint" />
            <mxPoint x="90" y="81.42857142857143" as="targetPoint" />
          </mxGeometry>
        </mxCell>
        <mxCell id="j_bU8EZD3RiMcGnf8XSQ-20" value="" style="group" parent="1" vertex="1" connectable="0">
          <mxGeometry x="954" y="440" width="90" height="190" as="geometry" />
        </mxCell>
        <mxCell id="j_bU8EZD3RiMcGnf8XSQ-21" value="" style="ellipse;whiteSpace=wrap;html=1;aspect=fixed;" parent="j_bU8EZD3RiMcGnf8XSQ-20" vertex="1">
          <mxGeometry x="18" width="48" height="48" as="geometry" />
        </mxCell>
        <mxCell id="j_bU8EZD3RiMcGnf8XSQ-22" value="" style="endArrow=none;html=1;rounded=0;entryX=0.5;entryY=1;entryDx=0;entryDy=0;" parent="j_bU8EZD3RiMcGnf8XSQ-20" target="j_bU8EZD3RiMcGnf8XSQ-21" edge="1">
          <mxGeometry width="50" height="50" relative="1" as="geometry">
            <mxPoint x="42" y="149.2857142857143" as="sourcePoint" />
            <mxPoint x="132" y="88.21428571428572" as="targetPoint" />
          </mxGeometry>
        </mxCell>
        <mxCell id="j_bU8EZD3RiMcGnf8XSQ-23" value="" style="endArrow=none;html=1;rounded=0;" parent="j_bU8EZD3RiMcGnf8XSQ-20" edge="1">
          <mxGeometry width="50" height="50" relative="1" as="geometry">
            <mxPoint x="18" y="190" as="sourcePoint" />
            <mxPoint x="42" y="149.2857142857143" as="targetPoint" />
          </mxGeometry>
        </mxCell>
        <mxCell id="j_bU8EZD3RiMcGnf8XSQ-24" value="" style="endArrow=none;html=1;rounded=0;" parent="j_bU8EZD3RiMcGnf8XSQ-20" edge="1">
          <mxGeometry width="50" height="50" relative="1" as="geometry">
            <mxPoint x="42" y="149.2857142857143" as="sourcePoint" />
            <mxPoint x="66" y="190" as="targetPoint" />
          </mxGeometry>
        </mxCell>
        <mxCell id="j_bU8EZD3RiMcGnf8XSQ-25" value="" style="endArrow=none;html=1;rounded=0;" parent="j_bU8EZD3RiMcGnf8XSQ-20" edge="1">
          <mxGeometry width="50" height="50" relative="1" as="geometry">
            <mxPoint y="81.42857142857143" as="sourcePoint" />
            <mxPoint x="90" y="81.42857142857143" as="targetPoint" />
          </mxGeometry>
        </mxCell>
        <mxCell id="j_bU8EZD3RiMcGnf8XSQ-40" value="&lt;font style=&quot;font-size: 18px;&quot;&gt;Гость&lt;/font&gt;" style="text;html=1;align=center;verticalAlign=middle;resizable=0;points=[];autosize=1;strokeColor=none;fillColor=none;" parent="1" vertex="1">
          <mxGeometry x="394" y="530" width="70" height="40" as="geometry" />
        </mxCell>
        <mxCell id="j_bU8EZD3RiMcGnf8XSQ-42" value="" style="endArrow=classic;html=1;rounded=0;entryX=0;entryY=1;entryDx=0;entryDy=0;" parent="1" target="j_bU8EZD3RiMcGnf8XSQ-43" edge="1">
          <mxGeometry width="50" height="50" relative="1" as="geometry">
            <mxPoint x="454" y="423" as="sourcePoint" />
            <mxPoint x="479.67999999999984" y="350.76" as="targetPoint" />
          </mxGeometry>
        </mxCell>
        <mxCell id="j_bU8EZD3RiMcGnf8XSQ-43" value="" style="ellipse;whiteSpace=wrap;html=1;" parent="1" vertex="1">
          <mxGeometry x="440" y="275" width="120" height="80" as="geometry" />
        </mxCell>
        <mxCell id="j_bU8EZD3RiMcGnf8XSQ-44" value="Зарегистриваться" style="text;html=1;align=center;verticalAlign=middle;whiteSpace=wrap;rounded=0;" parent="1" vertex="1">
          <mxGeometry x="473" y="300" width="60" height="30" as="geometry" />
        </mxCell>
        <mxCell id="j_bU8EZD3RiMcGnf8XSQ-45" value="" style="ellipse;whiteSpace=wrap;html=1;" parent="1" vertex="1">
          <mxGeometry x="283" y="155" width="170" height="80" as="geometry" />
        </mxCell>
        <mxCell id="j_bU8EZD3RiMcGnf8XSQ-46" value="Выбрать тип аккаунта" style="text;html=1;align=center;verticalAlign=middle;whiteSpace=wrap;rounded=0;" parent="1" vertex="1">
          <mxGeometry x="338" y="175" width="60" height="30" as="geometry" />
        </mxCell>
        <mxCell id="j_bU8EZD3RiMcGnf8XSQ-49" value="&amp;lt;&amp;lt;include&amp;gt;&amp;gt;" style="text;html=1;align=center;verticalAlign=middle;whiteSpace=wrap;rounded=0;" parent="1" vertex="1">
          <mxGeometry x="408" y="237" width="60" height="30" as="geometry" />
        </mxCell>
        <mxCell id="j_bU8EZD3RiMcGnf8XSQ-50" value="" style="endArrow=classic;html=1;rounded=0;entryX=1;entryY=0.5;entryDx=0;entryDy=0;" parent="1" target="j_bU8EZD3RiMcGnf8XSQ-51" edge="1">
          <mxGeometry width="50" height="50" relative="1" as="geometry">
            <mxPoint x="382" y="421" as="sourcePoint" />
            <mxPoint x="314" y="380" as="targetPoint" />
          </mxGeometry>
        </mxCell>
        <mxCell id="j_bU8EZD3RiMcGnf8XSQ-51" value="" style="ellipse;whiteSpace=wrap;html=1;" parent="1" vertex="1">
          <mxGeometry x="174" y="350" width="120" height="80" as="geometry" />
        </mxCell>
        <mxCell id="j_bU8EZD3RiMcGnf8XSQ-52" value="Связь с администратором" style="text;html=1;align=center;verticalAlign=middle;whiteSpace=wrap;rounded=0;" parent="1" vertex="1">
          <mxGeometry x="204" y="375" width="60" height="30" as="geometry" />
        </mxCell>
        <mxCell id="j_bU8EZD3RiMcGnf8XSQ-53" value="" style="endArrow=classic;html=1;rounded=0;entryX=0.739;entryY=0.058;entryDx=0;entryDy=0;entryPerimeter=0;" parent="1" target="j_bU8EZD3RiMcGnf8XSQ-54" edge="1">
          <mxGeometry width="50" height="50" relative="1" as="geometry">
            <mxPoint x="386" y="419" as="sourcePoint" />
            <mxPoint x="324" y="440" as="targetPoint" />
          </mxGeometry>
        </mxCell>
        <mxCell id="j_bU8EZD3RiMcGnf8XSQ-54" value="" style="ellipse;whiteSpace=wrap;html=1;" parent="1" vertex="1">
          <mxGeometry x="214" y="440" width="120" height="80" as="geometry" />
        </mxCell>
        <mxCell id="j_bU8EZD3RiMcGnf8XSQ-55" value="Забронировать товар" style="text;html=1;align=center;verticalAlign=middle;whiteSpace=wrap;rounded=0;" parent="1" vertex="1">
          <mxGeometry x="249" y="465" width="60" height="30" as="geometry" />
        </mxCell>
        <mxCell id="j_bU8EZD3RiMcGnf8XSQ-57" value="" style="endArrow=none;dashed=1;html=1;rounded=0;" parent="1" source="j_bU8EZD3RiMcGnf8XSQ-56" edge="1">
          <mxGeometry width="50" height="50" relative="1" as="geometry">
            <mxPoint x="189" y="530" as="sourcePoint" />
            <mxPoint x="144" y="550" as="targetPoint" />
          </mxGeometry>
        </mxCell>
        <mxCell id="j_bU8EZD3RiMcGnf8XSQ-59" value="" style="endArrow=classic;html=1;rounded=0;entryX=0.088;entryY=0.813;entryDx=0;entryDy=0;entryPerimeter=0;" parent="1" target="j_bU8EZD3RiMcGnf8XSQ-54" edge="1">
          <mxGeometry width="50" height="50" relative="1" as="geometry">
            <mxPoint x="214" y="510" as="sourcePoint" />
            <mxPoint x="218.54" y="495" as="targetPoint" />
          </mxGeometry>
        </mxCell>
        <mxCell id="j_bU8EZD3RiMcGnf8XSQ-60" value="" style="endArrow=none;dashed=1;html=1;rounded=0;" parent="1" target="j_bU8EZD3RiMcGnf8XSQ-56" edge="1">
          <mxGeometry width="50" height="50" relative="1" as="geometry">
            <mxPoint x="214" y="510" as="sourcePoint" />
            <mxPoint x="144" y="550" as="targetPoint" />
          </mxGeometry>
        </mxCell>
        <mxCell id="j_bU8EZD3RiMcGnf8XSQ-56" value="&amp;lt;&amp;lt;extend&amp;gt;&amp;gt;" style="text;html=1;align=center;verticalAlign=middle;whiteSpace=wrap;rounded=0;" parent="1" vertex="1">
          <mxGeometry x="154" y="520" width="50" height="20" as="geometry" />
        </mxCell>
        <mxCell id="j_bU8EZD3RiMcGnf8XSQ-61" value="" style="ellipse;whiteSpace=wrap;html=1;" parent="1" vertex="1">
          <mxGeometry x="54" y="550" width="120" height="80" as="geometry" />
        </mxCell>
        <mxCell id="j_bU8EZD3RiMcGnf8XSQ-62" value="Оставить отзыв" style="text;html=1;align=center;verticalAlign=middle;whiteSpace=wrap;rounded=0;" parent="1" vertex="1">
          <mxGeometry x="84" y="580" width="60" height="30" as="geometry" />
        </mxCell>
        <mxCell id="j_bU8EZD3RiMcGnf8XSQ-63" value="" style="group" parent="1" vertex="1" connectable="0">
          <mxGeometry x="394" y="610" width="210" height="255" as="geometry" />
        </mxCell>
        <mxCell id="j_bU8EZD3RiMcGnf8XSQ-32" value="" style="group" parent="j_bU8EZD3RiMcGnf8XSQ-63" vertex="1" connectable="0">
          <mxGeometry x="60" width="90" height="190" as="geometry" />
        </mxCell>
        <mxCell id="j_bU8EZD3RiMcGnf8XSQ-33" value="" style="ellipse;whiteSpace=wrap;html=1;aspect=fixed;" parent="j_bU8EZD3RiMcGnf8XSQ-32" vertex="1">
          <mxGeometry x="18" width="48" height="48" as="geometry" />
        </mxCell>
        <mxCell id="j_bU8EZD3RiMcGnf8XSQ-34" value="" style="endArrow=none;html=1;rounded=0;entryX=0.5;entryY=1;entryDx=0;entryDy=0;" parent="j_bU8EZD3RiMcGnf8XSQ-32" target="j_bU8EZD3RiMcGnf8XSQ-33" edge="1">
          <mxGeometry width="50" height="50" relative="1" as="geometry">
            <mxPoint x="42" y="149.2857142857143" as="sourcePoint" />
            <mxPoint x="132" y="88.21428571428572" as="targetPoint" />
          </mxGeometry>
        </mxCell>
        <mxCell id="j_bU8EZD3RiMcGnf8XSQ-35" value="" style="endArrow=none;html=1;rounded=0;" parent="j_bU8EZD3RiMcGnf8XSQ-32" edge="1">
          <mxGeometry width="50" height="50" relative="1" as="geometry">
            <mxPoint x="18" y="190" as="sourcePoint" />
            <mxPoint x="42" y="149.2857142857143" as="targetPoint" />
          </mxGeometry>
        </mxCell>
        <mxCell id="j_bU8EZD3RiMcGnf8XSQ-36" value="" style="endArrow=none;html=1;rounded=0;" parent="j_bU8EZD3RiMcGnf8XSQ-32" edge="1">
          <mxGeometry width="50" height="50" relative="1" as="geometry">
            <mxPoint x="42" y="149.2857142857143" as="sourcePoint" />
            <mxPoint x="66" y="190" as="targetPoint" />
          </mxGeometry>
        </mxCell>
        <mxCell id="j_bU8EZD3RiMcGnf8XSQ-37" value="" style="endArrow=none;html=1;rounded=0;" parent="j_bU8EZD3RiMcGnf8XSQ-32" edge="1">
          <mxGeometry width="50" height="50" relative="1" as="geometry">
            <mxPoint y="81.42857142857143" as="sourcePoint" />
            <mxPoint x="90" y="81.42857142857143" as="targetPoint" />
          </mxGeometry>
        </mxCell>
        <mxCell id="j_bU8EZD3RiMcGnf8XSQ-41" value="&lt;font style=&quot;font-size: 18px;&quot;&gt;Зарегистрированный&amp;nbsp;&lt;br&gt;пользователь&lt;br&gt;&lt;/font&gt;" style="text;html=1;align=center;verticalAlign=middle;resizable=0;points=[];autosize=1;strokeColor=none;fillColor=none;" parent="j_bU8EZD3RiMcGnf8XSQ-63" vertex="1">
          <mxGeometry y="195" width="210" height="60" as="geometry" />
        </mxCell>
        <mxCell id="j_bU8EZD3RiMcGnf8XSQ-65" value="" style="endArrow=classic;html=1;rounded=0;entryX=0;entryY=1;entryDx=0;entryDy=0;" parent="1" target="j_bU8EZD3RiMcGnf8XSQ-66" edge="1">
          <mxGeometry width="50" height="50" relative="1" as="geometry">
            <mxPoint x="542" y="690" as="sourcePoint" />
            <mxPoint x="624" y="470" as="targetPoint" />
          </mxGeometry>
        </mxCell>
        <mxCell id="j_bU8EZD3RiMcGnf8XSQ-66" value="" style="ellipse;whiteSpace=wrap;html=1;" parent="1" vertex="1">
          <mxGeometry x="624" y="375" width="120" height="80" as="geometry" />
        </mxCell>
        <mxCell id="j_bU8EZD3RiMcGnf8XSQ-67" value="Просмотр товаров" style="text;html=1;align=center;verticalAlign=middle;whiteSpace=wrap;rounded=0;" parent="1" vertex="1">
          <mxGeometry x="654" y="400" width="60" height="30" as="geometry" />
        </mxCell>
        <mxCell id="j_bU8EZD3RiMcGnf8XSQ-68" value="" style="ellipse;whiteSpace=wrap;html=1;" parent="1" vertex="1">
          <mxGeometry x="191" y="232" width="120" height="80" as="geometry" />
        </mxCell>
        <mxCell id="j_bU8EZD3RiMcGnf8XSQ-69" value="" style="ellipse;whiteSpace=wrap;html=1;" parent="1" vertex="1">
          <mxGeometry x="786" y="805" width="120" height="80" as="geometry" />
        </mxCell>
        <mxCell id="j_bU8EZD3RiMcGnf8XSQ-70" value="" style="endArrow=classic;html=1;rounded=0;entryX=0.5;entryY=1;entryDx=0;entryDy=0;" parent="1" target="j_bU8EZD3RiMcGnf8XSQ-68" edge="1">
          <mxGeometry width="50" height="50" relative="1" as="geometry">
            <mxPoint x="383" y="423" as="sourcePoint" />
            <mxPoint x="364" y="190" as="targetPoint" />
          </mxGeometry>
        </mxCell>
        <mxCell id="j_bU8EZD3RiMcGnf8XSQ-71" value="Выбор оплаты" style="text;html=1;align=center;verticalAlign=middle;whiteSpace=wrap;rounded=0;" parent="1" vertex="1">
          <mxGeometry x="221" y="257" width="60" height="30" as="geometry" />
        </mxCell>
        <mxCell id="j_bU8EZD3RiMcGnf8XSQ-72" value="" style="ellipse;whiteSpace=wrap;html=1;" parent="1" vertex="1">
          <mxGeometry x="631" y="908" width="120" height="80" as="geometry" />
        </mxCell>
        <mxCell id="j_bU8EZD3RiMcGnf8XSQ-73" value="" style="endArrow=classic;html=1;rounded=0;entryX=0.113;entryY=0.259;entryDx=0;entryDy=0;entryPerimeter=0;" parent="1" target="j_bU8EZD3RiMcGnf8XSQ-69" edge="1">
          <mxGeometry width="50" height="50" relative="1" as="geometry">
            <mxPoint x="538" y="690" as="sourcePoint" />
            <mxPoint x="798" y="792" as="targetPoint" />
          </mxGeometry>
        </mxCell>
        <mxCell id="j_bU8EZD3RiMcGnf8XSQ-74" value="" style="endArrow=classic;html=1;rounded=0;entryX=0.5;entryY=0;entryDx=0;entryDy=0;" parent="1" target="j_bU8EZD3RiMcGnf8XSQ-72" edge="1">
          <mxGeometry width="50" height="50" relative="1" as="geometry">
            <mxPoint x="538" y="692" as="sourcePoint" />
            <mxPoint x="681" y="898" as="targetPoint" />
          </mxGeometry>
        </mxCell>
        <mxCell id="j_bU8EZD3RiMcGnf8XSQ-75" value="Просмотр&lt;br&gt;цены&lt;br&gt;товара" style="text;html=1;align=center;verticalAlign=middle;whiteSpace=wrap;rounded=0;" parent="1" vertex="1">
          <mxGeometry x="813" y="826" width="60" height="30" as="geometry" />
        </mxCell>
        <mxCell id="j_bU8EZD3RiMcGnf8XSQ-76" value="Добавление&lt;br&gt;в избранное" style="text;html=1;align=center;verticalAlign=middle;whiteSpace=wrap;rounded=0;" parent="1" vertex="1">
          <mxGeometry x="661" y="933" width="60" height="30" as="geometry" />
        </mxCell>
        <mxCell id="j_bU8EZD3RiMcGnf8XSQ-77" value="" style="endArrow=classic;html=1;rounded=0;entryX=0;entryY=0;entryDx=0;entryDy=0;" parent="1" target="j_bU8EZD3RiMcGnf8XSQ-66" edge="1">
          <mxGeometry width="50" height="50" relative="1" as="geometry">
            <mxPoint x="452" y="422" as="sourcePoint" />
            <mxPoint x="594" y="400" as="targetPoint" />
          </mxGeometry>
        </mxCell>
        <mxCell id="j_bU8EZD3RiMcGnf8XSQ-84" value="" style="group" parent="1" vertex="1" connectable="0">
          <mxGeometry x="604" y="290" width="65" height="85" as="geometry" />
        </mxCell>
        <mxCell id="j_bU8EZD3RiMcGnf8XSQ-79" value="" style="endArrow=none;dashed=1;html=1;dashPattern=1 3;strokeWidth=2;rounded=0;" parent="j_bU8EZD3RiMcGnf8XSQ-84" source="j_bU8EZD3RiMcGnf8XSQ-82" edge="1">
          <mxGeometry width="50" height="50" relative="1" as="geometry">
            <mxPoint x="54.166666666666664" y="74.375" as="sourcePoint" />
            <mxPoint as="targetPoint" />
          </mxGeometry>
        </mxCell>
        <mxCell id="j_bU8EZD3RiMcGnf8XSQ-80" value="" style="endArrow=classic;html=1;rounded=0;" parent="j_bU8EZD3RiMcGnf8XSQ-84" edge="1">
          <mxGeometry width="50" height="50" relative="1" as="geometry">
            <mxPoint x="54.166666666666664" y="74.375" as="sourcePoint" />
            <mxPoint x="65" y="85" as="targetPoint" />
          </mxGeometry>
        </mxCell>
        <mxCell id="j_bU8EZD3RiMcGnf8XSQ-83" value="" style="endArrow=none;dashed=1;html=1;dashPattern=1 3;strokeWidth=2;rounded=0;" parent="j_bU8EZD3RiMcGnf8XSQ-84" target="j_bU8EZD3RiMcGnf8XSQ-82" edge="1">
          <mxGeometry width="50" height="50" relative="1" as="geometry">
            <mxPoint x="54.166666666666664" y="74.375" as="sourcePoint" />
            <mxPoint as="targetPoint" />
          </mxGeometry>
        </mxCell>
        <mxCell id="j_bU8EZD3RiMcGnf8XSQ-82" value="&amp;lt;&amp;lt;extend&amp;gt;&amp;gt;" style="text;html=1;align=center;verticalAlign=middle;whiteSpace=wrap;rounded=0;" parent="j_bU8EZD3RiMcGnf8XSQ-84" vertex="1">
          <mxGeometry y="31.875" width="54.166666666666664" height="21.25" as="geometry" />
        </mxCell>
        <mxCell id="j_bU8EZD3RiMcGnf8XSQ-89" value="" style="endArrow=none;dashed=1;html=1;dashPattern=1 3;strokeWidth=2;rounded=0;" parent="1" source="j_bU8EZD3RiMcGnf8XSQ-95" edge="1">
          <mxGeometry width="50" height="50" relative="1" as="geometry">
            <mxPoint x="714" y="360" as="sourcePoint" />
            <mxPoint x="734" y="280" as="targetPoint" />
          </mxGeometry>
        </mxCell>
        <mxCell id="j_bU8EZD3RiMcGnf8XSQ-90" value="" style="endArrow=none;dashed=1;html=1;dashPattern=1 3;strokeWidth=2;rounded=0;" parent="1" source="j_bU8EZD3RiMcGnf8XSQ-94" edge="1">
          <mxGeometry width="50" height="50" relative="1" as="geometry">
            <mxPoint x="764" y="380" as="sourcePoint" />
            <mxPoint x="814" y="310" as="targetPoint" />
          </mxGeometry>
        </mxCell>
        <mxCell id="j_bU8EZD3RiMcGnf8XSQ-92" value="" style="endArrow=classic;html=1;rounded=0;entryX=0.633;entryY=0.025;entryDx=0;entryDy=0;entryPerimeter=0;" parent="1" target="j_bU8EZD3RiMcGnf8XSQ-66" edge="1">
          <mxGeometry width="50" height="50" relative="1" as="geometry">
            <mxPoint x="714" y="360" as="sourcePoint" />
            <mxPoint x="704" y="370" as="targetPoint" />
          </mxGeometry>
        </mxCell>
        <mxCell id="j_bU8EZD3RiMcGnf8XSQ-93" value="" style="endArrow=classic;html=1;rounded=0;entryX=0.991;entryY=0.27;entryDx=0;entryDy=0;entryPerimeter=0;" parent="1" target="j_bU8EZD3RiMcGnf8XSQ-66" edge="1">
          <mxGeometry width="50" height="50" relative="1" as="geometry">
            <mxPoint x="764" y="380" as="sourcePoint" />
            <mxPoint x="754" y="390" as="targetPoint" />
          </mxGeometry>
        </mxCell>
        <mxCell id="j_bU8EZD3RiMcGnf8XSQ-96" value="" style="endArrow=none;dashed=1;html=1;dashPattern=1 3;strokeWidth=2;rounded=0;" parent="1" target="j_bU8EZD3RiMcGnf8XSQ-95" edge="1">
          <mxGeometry width="50" height="50" relative="1" as="geometry">
            <mxPoint x="714" y="360" as="sourcePoint" />
            <mxPoint x="734" y="280" as="targetPoint" />
          </mxGeometry>
        </mxCell>
        <mxCell id="j_bU8EZD3RiMcGnf8XSQ-95" value="&amp;lt;&amp;lt;extend&amp;gt;&amp;gt;" style="text;html=1;align=center;verticalAlign=middle;whiteSpace=wrap;rounded=0;" parent="1" vertex="1">
          <mxGeometry x="694" y="320" width="50" height="20" as="geometry" />
        </mxCell>
        <mxCell id="j_bU8EZD3RiMcGnf8XSQ-98" value="" style="endArrow=none;dashed=1;html=1;dashPattern=1 3;strokeWidth=2;rounded=0;" parent="1" target="j_bU8EZD3RiMcGnf8XSQ-94" edge="1">
          <mxGeometry width="50" height="50" relative="1" as="geometry">
            <mxPoint x="764" y="380" as="sourcePoint" />
            <mxPoint x="814" y="310" as="targetPoint" />
          </mxGeometry>
        </mxCell>
        <mxCell id="j_bU8EZD3RiMcGnf8XSQ-94" value="&amp;lt;&amp;lt;extend&amp;gt;&amp;gt;" style="text;html=1;align=center;verticalAlign=middle;whiteSpace=wrap;rounded=0;" parent="1" vertex="1">
          <mxGeometry x="754" y="340" width="50" height="20" as="geometry" />
        </mxCell>
        <mxCell id="j_bU8EZD3RiMcGnf8XSQ-99" value="Просмотр&lt;br&gt;каталогов" style="ellipse;whiteSpace=wrap;html=1;" parent="1" vertex="1">
          <mxGeometry x="522" y="205" width="120" height="80" as="geometry" />
        </mxCell>
        <mxCell id="j_bU8EZD3RiMcGnf8XSQ-100" value="Поиск товаров" style="ellipse;whiteSpace=wrap;html=1;" parent="1" vertex="1">
          <mxGeometry x="676" y="192" width="120" height="80" as="geometry" />
        </mxCell>
        <mxCell id="j_bU8EZD3RiMcGnf8XSQ-101" value="Связь с администратором" style="ellipse;whiteSpace=wrap;html=1;" parent="1" vertex="1">
          <mxGeometry x="790" y="235" width="120" height="80" as="geometry" />
        </mxCell>
        <mxCell id="j_bU8EZD3RiMcGnf8XSQ-102" value="" style="endArrow=classic;html=1;rounded=0;entryX=0.938;entryY=0.71;entryDx=0;entryDy=0;entryPerimeter=0;" parent="1" target="j_bU8EZD3RiMcGnf8XSQ-66" edge="1">
          <mxGeometry width="50" height="50" relative="1" as="geometry">
            <mxPoint x="854" y="540" as="sourcePoint" />
            <mxPoint x="754" y="440" as="targetPoint" />
            <Array as="points">
              <mxPoint x="957" y="521" />
            </Array>
          </mxGeometry>
        </mxCell>
        <mxCell id="j_bU8EZD3RiMcGnf8XSQ-103" value="" style="endArrow=classic;html=1;rounded=0;entryX=0.669;entryY=0.051;entryDx=0;entryDy=0;entryPerimeter=0;" parent="1" target="j_bU8EZD3RiMcGnf8XSQ-104" edge="1">
          <mxGeometry width="50" height="50" relative="1" as="geometry">
            <mxPoint x="854" y="540" as="sourcePoint" />
            <mxPoint x="812" y="570" as="targetPoint" />
          </mxGeometry>
        </mxCell>
        <mxCell id="j_bU8EZD3RiMcGnf8XSQ-104" value="Отправка на обработку данных" style="ellipse;whiteSpace=wrap;html=1;" parent="1" vertex="1">
          <mxGeometry x="684" y="560" width="120" height="80" as="geometry" />
        </mxCell>
        <mxCell id="j_bU8EZD3RiMcGnf8XSQ-105" value="&lt;span style=&quot;font-size: 18px;&quot;&gt;Администратор&lt;/span&gt;" style="text;html=1;align=center;verticalAlign=middle;resizable=0;points=[];autosize=1;strokeColor=none;fillColor=none;" parent="1" vertex="1">
          <mxGeometry x="925" y="633" width="148" height="34" as="geometry" />
        </mxCell>
        <mxCell id="j_bU8EZD3RiMcGnf8XSQ-106" value="" style="endArrow=classic;html=1;rounded=0;entryX=0.012;entryY=0.662;entryDx=0;entryDy=0;entryPerimeter=0;" parent="1" target="j_bU8EZD3RiMcGnf8XSQ-109" edge="1">
          <mxGeometry width="50" height="50" relative="1" as="geometry">
            <mxPoint x="1044" y="522" as="sourcePoint" />
            <mxPoint x="1134" y="350" as="targetPoint" />
          </mxGeometry>
        </mxCell>
        <mxCell id="j_bU8EZD3RiMcGnf8XSQ-107" value="" style="endArrow=classic;html=1;rounded=0;entryX=0;entryY=0.5;entryDx=0;entryDy=0;" parent="1" target="j_bU8EZD3RiMcGnf8XSQ-110" edge="1">
          <mxGeometry width="50" height="50" relative="1" as="geometry">
            <mxPoint x="1043" y="520" as="sourcePoint" />
            <mxPoint x="1194" y="450" as="targetPoint" />
          </mxGeometry>
        </mxCell>
        <mxCell id="j_bU8EZD3RiMcGnf8XSQ-108" value="" style="endArrow=classic;html=1;rounded=0;entryX=0.04;entryY=0.316;entryDx=0;entryDy=0;entryPerimeter=0;" parent="1" target="j_bU8EZD3RiMcGnf8XSQ-111" edge="1">
          <mxGeometry width="50" height="50" relative="1" as="geometry">
            <mxPoint x="1043" y="522" as="sourcePoint" />
            <mxPoint x="1244" y="610" as="targetPoint" />
          </mxGeometry>
        </mxCell>
        <mxCell id="j_bU8EZD3RiMcGnf8XSQ-109" value="Ответить пользователям" style="ellipse;whiteSpace=wrap;html=1;" parent="1" vertex="1">
          <mxGeometry x="1134" y="285" width="120" height="80" as="geometry" />
        </mxCell>
        <mxCell id="j_bU8EZD3RiMcGnf8XSQ-110" value="Блокировка пользователя" style="ellipse;whiteSpace=wrap;html=1;" parent="1" vertex="1">
          <mxGeometry x="1213" y="402" width="120" height="80" as="geometry" />
        </mxCell>
        <mxCell id="j_bU8EZD3RiMcGnf8XSQ-111" value="" style="ellipse;whiteSpace=wrap;html=1;" parent="1" vertex="1">
          <mxGeometry x="1264" y="590" width="120" height="80" as="geometry" />
        </mxCell>
        <mxCell id="j_bU8EZD3RiMcGnf8XSQ-112" value="Добавление товара" style="text;html=1;align=center;verticalAlign=middle;whiteSpace=wrap;rounded=0;" parent="1" vertex="1">
          <mxGeometry x="1294" y="619" width="60" height="30" as="geometry" />
        </mxCell>
        <mxCell id="j_bU8EZD3RiMcGnf8XSQ-125" value="Добавление фотографий товара" style="ellipse;whiteSpace=wrap;html=1;" parent="1" vertex="1">
          <mxGeometry x="1464" y="477" width="120" height="80" as="geometry" />
        </mxCell>
        <mxCell id="j_bU8EZD3RiMcGnf8XSQ-126" value="Указать описание товара" style="ellipse;whiteSpace=wrap;html=1;" parent="1" vertex="1">
          <mxGeometry x="1512" y="600" width="120" height="80" as="geometry" />
        </mxCell>
        <mxCell id="j_bU8EZD3RiMcGnf8XSQ-129" value="Указать цену" style="ellipse;whiteSpace=wrap;html=1;" parent="1" vertex="1">
          <mxGeometry x="1524" y="698" width="120" height="80" as="geometry" />
        </mxCell>
        <mxCell id="j_bU8EZD3RiMcGnf8XSQ-130" value="" style="endArrow=classic;html=1;rounded=0;entryX=0.388;entryY=0.013;entryDx=0;entryDy=0;entryPerimeter=0;" parent="1" target="j_bU8EZD3RiMcGnf8XSQ-131" edge="1">
          <mxGeometry width="50" height="50" relative="1" as="geometry">
            <mxPoint x="1031" y="520" as="sourcePoint" />
            <mxPoint x="1104" y="710" as="targetPoint" />
          </mxGeometry>
        </mxCell>
        <mxCell id="j_bU8EZD3RiMcGnf8XSQ-131" value="Убрать товар" style="ellipse;whiteSpace=wrap;html=1;" parent="1" vertex="1">
          <mxGeometry x="1058" y="722" width="120" height="80" as="geometry" />
        </mxCell>
        <mxCell id="HtPOd9yWre4z4OYLKSHS-6" value="" style="endArrow=classic;html=1;rounded=0;entryX=0;entryY=0.5;entryDx=0;entryDy=0;exitX=0.724;exitY=0.089;exitDx=0;exitDy=0;exitPerimeter=0;" parent="1" source="j_bU8EZD3RiMcGnf8XSQ-111" target="j_bU8EZD3RiMcGnf8XSQ-125" edge="1">
          <mxGeometry width="50" height="50" relative="1" as="geometry">
            <mxPoint x="1364" y="600" as="sourcePoint" />
            <mxPoint x="1414" y="550" as="targetPoint" />
          </mxGeometry>
        </mxCell>
        <mxCell id="HtPOd9yWre4z4OYLKSHS-7" value="&amp;lt;&amp;lt;include&amp;gt;&amp;gt;" style="text;html=1;align=center;verticalAlign=middle;resizable=0;points=[];autosize=1;strokeColor=none;fillColor=none;" parent="1" vertex="1">
          <mxGeometry x="1345" y="524" width="84" height="26" as="geometry" />
        </mxCell>
        <mxCell id="hBNCobQ_2Epjqk5ovAcB-1" value="" style="endArrow=classic;html=1;rounded=0;exitX=1;exitY=0.5;exitDx=0;exitDy=0;entryX=0;entryY=0.5;entryDx=0;entryDy=0;" parent="1" source="j_bU8EZD3RiMcGnf8XSQ-111" target="j_bU8EZD3RiMcGnf8XSQ-126" edge="1">
          <mxGeometry width="50" height="50" relative="1" as="geometry">
            <mxPoint x="1390" y="627" as="sourcePoint" />
            <mxPoint x="1440" y="577" as="targetPoint" />
          </mxGeometry>
        </mxCell>
        <mxCell id="hBNCobQ_2Epjqk5ovAcB-2" value="" style="endArrow=classic;html=1;rounded=0;entryX=-0.003;entryY=0.38;entryDx=0;entryDy=0;entryPerimeter=0;" parent="1" source="j_bU8EZD3RiMcGnf8XSQ-111" target="j_bU8EZD3RiMcGnf8XSQ-129" edge="1">
          <mxGeometry width="50" height="50" relative="1" as="geometry">
            <mxPoint x="1389" y="680" as="sourcePoint" />
            <mxPoint x="1439" y="630" as="targetPoint" />
          </mxGeometry>
        </mxCell>
        <mxCell id="hBNCobQ_2Epjqk5ovAcB-3" value="&amp;lt;&amp;lt;include&amp;gt;&amp;gt;" style="text;html=1;align=center;verticalAlign=middle;resizable=0;points=[];autosize=1;strokeColor=none;fillColor=none;" parent="1" vertex="1">
          <mxGeometry x="1399" y="598" width="84" height="26" as="geometry" />
        </mxCell>
        <mxCell id="hBNCobQ_2Epjqk5ovAcB-4" value="&amp;lt;&amp;lt;include&amp;gt;&amp;gt;" style="text;html=1;align=center;verticalAlign=middle;resizable=0;points=[];autosize=1;strokeColor=none;fillColor=none;" parent="1" vertex="1">
          <mxGeometry x="1410" y="651" width="84" height="26" as="geometry" />
        </mxCell>
        <mxCell id="hBNCobQ_2Epjqk5ovAcB-7" value="" style="endArrow=classic;html=1;rounded=0;entryX=0.558;entryY=0.984;entryDx=0;entryDy=0;entryPerimeter=0;exitX=0.076;exitY=0.296;exitDx=0;exitDy=0;exitPerimeter=0;" parent="1" target="j_bU8EZD3RiMcGnf8XSQ-45" edge="1">
          <mxGeometry width="50" height="50" relative="1" as="geometry">
            <mxPoint x="448.1200000000001" y="296.68000000000006" as="sourcePoint" />
            <mxPoint x="500" y="242" as="targetPoint" />
          </mxGeometry>
        </mxCell>
        <mxCell id="1Zt2sxsNPv4J4mB8oLXV-4" value="" style="endArrow=classic;html=1;rounded=0;" edge="1" parent="1">
          <mxGeometry width="50" height="50" relative="1" as="geometry">
            <mxPoint x="649" y="686" as="sourcePoint" />
            <mxPoint x="699" y="636" as="targetPoint" />
          </mxGeometry>
        </mxCell>
        <mxCell id="1Zt2sxsNPv4J4mB8oLXV-5" value="" style="shape=flexArrow;endArrow=classic;html=1;rounded=0;entryX=0.976;entryY=0.261;entryDx=0;entryDy=0;entryPerimeter=0;" edge="1" parent="1" target="j_bU8EZD3RiMcGnf8XSQ-40">
          <mxGeometry width="50" height="50" relative="1" as="geometry">
            <mxPoint x="491.31" y="601.44" as="sourcePoint" />
            <mxPoint x="463.99999999999983" y="549.0000000000002" as="targetPoint" />
          </mxGeometry>
        </mxCell>
      </root>
    </mxGraphModel>
  </diagram>
</mxfile>
